<?xml version="1.0" standalone="no"?><svg xmlns="http://www.w3.org/2000/svg" viewBox="0 0 1440 320"><path fill="#3a3053" fill-opacity=".4" d="M0,32L24,42.7C48,53,96,75,144,117.3C192,160,240,224,288,240C336,256,384,224,432,181.3C480,139,528,85,576,64C624,43,672,53,720,69.3C768,85,816,107,864,128C912,149,960,171,1008,176C1056,181,1104,171,1152,186.7C1200,203,1248,245,1296,229.3C1344,213,1392,139,1416,101.3L1440,64L1440,320L1416,320C1392,320,1344,320,1296,320C1248,320,1200,320,1152,320C1104,320,1056,320,1008,320C960,320,912,320,864,320C816,320,768,320,720,320C672,320,624,320,576,320C528,320,480,320,432,320C384,320,336,320,288,320C240,320,192,320,144,320C96,320,48,320,24,320L0,320Z"></path></svg>